REM DIRINDEX 1\8,1\2\11,1\3\12,1\3\14,1\5\15,1\5\16,1\6\17,1\6\18,1\4\19,1\4\20,1\4\21,1\4\22,1\7\23,1\7\24,1\7\25,1\2\9\26,1\2\9\27,1\2\10\28,1\2\10\29,1\2\10\30,1\2\10\31,1\2\10\32,1\3\13\33,1\3\13\34,1\3\13\35
REM DIRNAME cjc123,folder01,folder02,folder03,folder04,folder05,folder06,folder07,folder08,folder09,folder10,folder11,folder12,folder13,folder14,folder15,folder16,folder17,folder18,folder19,folder20,folder21,folder22,folder23,folder24,folder25,folder26,folder27,folder28,folder29,folder30,folder31,folder32,folder33,folder34
TITLE ""
FILE "1-32 032_UNIT3_SET1.mp3" MP3
  TRACK 01 AUDIO
    TITLE "11:cjc123_1289"
    INDEX 01 00:00:00
  TRACK 02 AUDIO
    TITLE "0:"
    INDEX 01 00:02:45
  TRACK 03 AUDIO
    TITLE "28:cjc123_1290"
    INDEX 01 00:03:25
  TRACK 04 AUDIO
    TITLE "0:"
    INDEX 01 00:04:27
  TRACK 05 AUDIO
    TITLE "29:cjc123_1291"
    INDEX 01 00:04:36
  TRACK 06 AUDIO
    TITLE "0:"
    INDEX 01 00:05:63
  TRACK 07 AUDIO
    TITLE "30:cjc123_1292"
    INDEX 01 00:05:71
  TRACK 08 AUDIO
    TITLE "0:"
    INDEX 01 00:06:69
  TRACK 09 AUDIO
    TITLE "31:cjc123_1293"
    INDEX 01 00:07:43
  TRACK 10 AUDIO
    TITLE "0:"
    INDEX 01 00:10:16
  TRACK 11 AUDIO
    TITLE "32:cjc123_1294"
    INDEX 01 00:10:45
  TRACK 12 AUDIO
    TITLE "0:"
    INDEX 01 00:13:63
  TRACK 13 AUDIO
    TITLE "28:cjc123_1295"
    INDEX 01 00:14:35
  TRACK 14 AUDIO
    TITLE "0:"
    INDEX 01 00:15:34
  TRACK 15 AUDIO
    TITLE "29:cjc123_1296"
    INDEX 01 00:15:46
  TRACK 16 AUDIO
    TITLE "0:"
    INDEX 01 00:17:10
  TRACK 17 AUDIO
    TITLE "30:cjc123_1297"
    INDEX 01 00:17:25
  TRACK 18 AUDIO
    TITLE "0:"
    INDEX 01 00:18:19
  TRACK 19 AUDIO
    TITLE "31:cjc123_1298"
    INDEX 01 00:18:70
  TRACK 20 AUDIO
    TITLE "0:"
    INDEX 01 00:21:51
  TRACK 21 AUDIO
    TITLE "32:cjc123_1299"
    INDEX 01 00:22:23
  TRACK 22 AUDIO
    TITLE "0:"
    INDEX 01 00:24:69
  TRACK 23 AUDIO
    TITLE "28:cjc123_1300"
    INDEX 01 00:25:50
  TRACK 24 AUDIO
    TITLE "0:"
    INDEX 01 00:26:42
  TRACK 25 AUDIO
    TITLE "29:cjc123_1301"
    INDEX 01 00:26:58
  TRACK 26 AUDIO
    TITLE "0:"
    INDEX 01 00:27:67
  TRACK 27 AUDIO
    TITLE "30:cjc123_1302"
    INDEX 01 00:28:06
  TRACK 28 AUDIO
    TITLE "0:"
    INDEX 01 00:28:70
  TRACK 29 AUDIO
    TITLE "31:cjc123_1303"
    INDEX 01 00:29:40
  TRACK 30 AUDIO
    TITLE "0:"
    INDEX 01 00:33:24
  TRACK 31 AUDIO
    TITLE "32:cjc123_1304"
    INDEX 01 00:33:58
  TRACK 32 AUDIO
    TITLE "0:"
    INDEX 01 00:38:18
  TRACK 33 AUDIO
    TITLE "28:cjc123_1305"
    INDEX 01 00:38:69
  TRACK 34 AUDIO
    TITLE "0:"
    INDEX 01 00:39:70
  TRACK 35 AUDIO
    TITLE "29:cjc123_1306"
    INDEX 01 00:40:13
  TRACK 36 AUDIO
    TITLE "0:"
    INDEX 01 00:41:45
  TRACK 37 AUDIO
    TITLE "30:cjc123_1307"
    INDEX 01 00:41:49
  TRACK 38 AUDIO
    TITLE "0:"
    INDEX 01 00:42:49
  TRACK 39 AUDIO
    TITLE "31:cjc123_1308"
    INDEX 01 00:43:29
  TRACK 40 AUDIO
    TITLE "0:"
    INDEX 01 00:46:33
  TRACK 41 AUDIO
    TITLE "32:cjc123_1309"
    INDEX 01 00:46:68
  TRACK 42 AUDIO
    TITLE "0:"
    INDEX 01 00:50:27
  TRACK 43 AUDIO
    TITLE "28:cjc123_1310"
    INDEX 01 00:50:72
  TRACK 44 AUDIO
    TITLE "0:"
    INDEX 01 00:52:06
  TRACK 45 AUDIO
    TITLE "29:cjc123_1311"
    INDEX 01 00:52:26
  TRACK 46 AUDIO
    TITLE "0:"
    INDEX 01 00:53:51
  TRACK 47 AUDIO
    TITLE "30:cjc123_1312"
    INDEX 01 00:53:57
  TRACK 48 AUDIO
    TITLE "0:"
    INDEX 01 00:54:60
  TRACK 49 AUDIO
    TITLE "31:cjc123_1313"
    INDEX 01 00:55:36
  TRACK 50 AUDIO
    TITLE "0:"
    INDEX 01 00:58:09
  TRACK 51 AUDIO
    TITLE "32:cjc123_1314"
    INDEX 01 00:58:40
  TRACK 52 AUDIO
    TITLE "0:"
    INDEX 01 01:02:03
  TRACK 53 AUDIO
    TITLE "28:cjc123_1315"
    INDEX 01 01:02:50
  TRACK 54 AUDIO
    TITLE "0:"
    INDEX 01 01:04:00
  TRACK 55 AUDIO
    TITLE "29:cjc123_1316"
    INDEX 01 01:04:09
  TRACK 56 AUDIO
    TITLE "0:"
    INDEX 01 01:05:46
  TRACK 57 AUDIO
    TITLE "30:cjc123_1317"
    INDEX 01 01:05:52
  TRACK 58 AUDIO
    TITLE "0:"
    INDEX 01 01:06:63
  TRACK 59 AUDIO
    TITLE "31:cjc123_1318"
    INDEX 01 01:07:37
  TRACK 60 AUDIO
    TITLE "0:"
    INDEX 01 01:11:15
  TRACK 61 AUDIO
    TITLE "32:cjc123_1319"
    INDEX 01 01:11:62
  TRACK 62 AUDIO
    TITLE "0:"
    INDEX 01 01:15:42
  TRACK 63 AUDIO
    TITLE "28:cjc123_1320"
    INDEX 01 01:16:18
  TRACK 64 AUDIO
    TITLE "0:"
    INDEX 01 01:17:35
  TRACK 65 AUDIO
    TITLE "29:cjc123_1321"
    INDEX 01 01:17:51
  TRACK 66 AUDIO
    TITLE "0:"
    INDEX 01 01:18:66
  TRACK 67 AUDIO
    TITLE "30:cjc123_1322"
    INDEX 01 01:19:03
  TRACK 68 AUDIO
    TITLE "0:"
    INDEX 01 01:20:24
  TRACK 69 AUDIO
    TITLE "31:cjc123_1323"
    INDEX 01 01:21:04
  TRACK 70 AUDIO
    TITLE "0:"
    INDEX 01 01:24:12
  TRACK 71 AUDIO
    TITLE "32:cjc123_1324"
    INDEX 01 01:24:41
  TRACK 72 AUDIO
    TITLE "0:"
    INDEX 01 01:28:12
  TRACK 73 AUDIO
    TITLE "28:cjc123_1325"
    INDEX 01 01:28:61
  TRACK 74 AUDIO
    TITLE "0:"
    INDEX 01 01:30:01
  TRACK 75 AUDIO
    TITLE "29:cjc123_1326"
    INDEX 01 01:30:18
  TRACK 76 AUDIO
    TITLE "0:"
    INDEX 01 01:31:34
  TRACK 77 AUDIO
    TITLE "30:cjc123_1327"
    INDEX 01 01:31:43
  TRACK 78 AUDIO
    TITLE "0:"
    INDEX 01 01:32:45
  TRACK 79 AUDIO
    TITLE "31:cjc123_1328"
    INDEX 01 01:33:27
  TRACK 80 AUDIO
    TITLE "0:"
    INDEX 01 01:36:52
  TRACK 81 AUDIO
    TITLE "32:cjc123_1329"
    INDEX 01 01:37:15
  TRACK 82 AUDIO
    TITLE "0:"
    INDEX 01 01:41:18
  TRACK 83 AUDIO
    TITLE "28:cjc123_1330"
    INDEX 01 01:41:61
  TRACK 84 AUDIO
    TITLE "0:"
    INDEX 01 01:42:69
  TRACK 85 AUDIO
    TITLE "29:cjc123_1331"
    INDEX 01 01:43:07
  TRACK 86 AUDIO
    TITLE "0:"
    INDEX 01 01:44:58
  TRACK 87 AUDIO
    TITLE "30:cjc123_1332"
    INDEX 01 01:44:68
  TRACK 88 AUDIO
    TITLE "0:"
    INDEX 01 01:46:00
  TRACK 89 AUDIO
    TITLE "31:cjc123_1333"
    INDEX 01 01:46:57
  TRACK 90 AUDIO
    TITLE "0:"
    INDEX 01 01:51:27
  TRACK 91 AUDIO
    TITLE "32:cjc123_1334"
    INDEX 01 01:51:60
  TRACK 92 AUDIO
    TITLE "0:"
    INDEX 01 01:56:00
  TRACK 93 AUDIO
    TITLE "28:cjc123_1335"
    INDEX 01 01:56:55
  TRACK 94 AUDIO
    TITLE "0:"
    INDEX 01 01:57:58
  TRACK 95 AUDIO
    TITLE "29:cjc123_1336"
    INDEX 01 01:57:72
  TRACK 96 AUDIO
    TITLE "0:"
    INDEX 01 01:59:40
  TRACK 97 AUDIO
    TITLE "30:cjc123_1337"
    INDEX 01 01:59:51
  TRACK 98 AUDIO
    TITLE "0:"
    INDEX 01 02:00:51
  TRACK 99 AUDIO
    TITLE "31:cjc123_1338"
    INDEX 01 02:01:29
  TRACK 100 AUDIO
    TITLE "0:"
    INDEX 01 02:05:60
  TRACK 101 AUDIO
    TITLE "32:cjc123_1339"
    INDEX 01 02:06:30
  TRACK 102 AUDIO
    TITLE "0:"
    INDEX 01 02:12:15
  TRACK 103 AUDIO
    TITLE "28:cjc123_1340"
    INDEX 01 02:12:64
  TRACK 104 AUDIO
    TITLE "0:"
    INDEX 01 02:14:18
  TRACK 105 AUDIO
    TITLE "29:cjc123_1341"
    INDEX 01 02:14:31
  TRACK 106 AUDIO
    TITLE "0:"
    INDEX 01 02:15:64
  TRACK 107 AUDIO
    TITLE "30:cjc123_1342"
    INDEX 01 02:15:74
  TRACK 108 AUDIO
    TITLE "0:"
    INDEX 01 02:17:30
  TRACK 109 AUDIO
    TITLE "31:cjc123_1343"
    INDEX 01 02:18:06
  TRACK 110 AUDIO
    TITLE "0:"
    INDEX 01 02:22:15
  TRACK 111 AUDIO
    TITLE "32:cjc123_1344"
    INDEX 01 02:22:49
  TRACK 112 AUDIO
    TITLE "0:"
    INDEX 01 02:28:04
  TRACK 113 AUDIO
    TITLE "28:cjc123_1345"
    INDEX 01 02:28:55
  TRACK 114 AUDIO
    TITLE "0:"
    INDEX 01 02:29:43
  TRACK 115 AUDIO
    TITLE "29:cjc123_1346"
    INDEX 01 02:29:53
  TRACK 116 AUDIO
    TITLE "0:"
    INDEX 01 02:30:54
  TRACK 117 AUDIO
    TITLE "30:cjc123_1347"
    INDEX 01 02:30:74
  TRACK 118 AUDIO
    TITLE "0:"
    INDEX 01 02:31:63
  TRACK 119 AUDIO
    TITLE "31:cjc123_1348"
    INDEX 01 02:32:39
  TRACK 120 AUDIO
    TITLE "0:"
    INDEX 01 02:36:39
  TRACK 121 AUDIO
    TITLE "32:cjc123_1349"
    INDEX 01 02:36:68
  TRACK 122 AUDIO
    TITLE "0:"
    INDEX 01 02:41:54
  TRACK 123 AUDIO
    TITLE "28:cjc123_1350"
    INDEX 01 02:42:22
  TRACK 124 AUDIO
    TITLE "0:"
    INDEX 01 02:43:27
  TRACK 125 AUDIO
    TITLE "29:cjc123_1351"
    INDEX 01 02:43:37
  TRACK 126 AUDIO
    TITLE "0:"
    INDEX 01 02:45:03
  TRACK 127 AUDIO
    TITLE "30:cjc123_1352"
    INDEX 01 02:45:14
  TRACK 128 AUDIO
    TITLE "0:"
    INDEX 01 02:46:06
  TRACK 129 AUDIO
    TITLE "31:cjc123_1353"
    INDEX 01 02:46:55
  TRACK 130 AUDIO
    TITLE "0:"
    INDEX 01 02:51:27
  TRACK 131 AUDIO
    TITLE "32:cjc123_1354"
    INDEX 01 02:51:60
  TRACK 132 AUDIO
    TITLE "0:"
    INDEX 01 02:56:55
  TRACK 133 AUDIO
    TITLE "28:cjc123_1355"
    INDEX 01 02:57:29
  TRACK 134 AUDIO
    TITLE "0:"
    INDEX 01 02:58:44
  TRACK 135 AUDIO
    TITLE "29:cjc123_1356"
    INDEX 01 02:58:62
  TRACK 136 AUDIO
    TITLE "0:"
    INDEX 01 03:00:28
  TRACK 137 AUDIO
    TITLE "30:cjc123_1357"
    INDEX 01 03:00:37
  TRACK 138 AUDIO
    TITLE "0:"
    INDEX 01 03:01:45
  TRACK 139 AUDIO
    TITLE "31:cjc123_1358"
    INDEX 01 03:02:23
  TRACK 140 AUDIO
    TITLE "0:"
    INDEX 01 03:07:36
  TRACK 141 AUDIO
    TITLE "32:cjc123_1359"
    INDEX 01 03:07:71
  TRACK 142 AUDIO
    TITLE "0:"
    INDEX 01 03:13:09
  TRACK 143 AUDIO
    TITLE "28:cjc123_1360"
    INDEX 01 03:13:58
  TRACK 144 AUDIO
    TITLE "0:"
    INDEX 01 03:14:69
  TRACK 145 AUDIO
    TITLE "29:cjc123_1361"
    INDEX 01 03:15:10
  TRACK 146 AUDIO
    TITLE "0:"
    INDEX 01 03:16:21
  TRACK 147 AUDIO
    TITLE "30:cjc123_1362"
    INDEX 01 03:16:29
  TRACK 148 AUDIO
    TITLE "0:"
    INDEX 01 03:17:28
  TRACK 149 AUDIO
    TITLE "31:cjc123_1363"
    INDEX 01 03:18:08
  TRACK 150 AUDIO
    TITLE "0:"
    INDEX 01 03:21:36
  TRACK 151 AUDIO
    TITLE "32:cjc123_1364"
    INDEX 01 03:21:61
  TRACK 152 AUDIO
    TITLE "0:"
    INDEX 01 03:25:73
